<?xml version="1.0" encoding="UTF-8"?>
<svg width="630px" height="514px" viewBox="0 0 630 514" version="1.1" xmlns="http://www.w3.org/2000/svg" xmlns:xlink="http://www.w3.org/1999/xlink">
    <!-- Generator: Sketch 57.1 (83088) - https://sketch.com -->
    <title>logo</title>
    <desc>Created with Sketch.</desc>
    <g id="Page-1" stroke="none" stroke-width="1" fill="none" fill-rule="evenodd">
        <g id="logo" transform="translate(-39.000000, -18.000000)" fill-rule="nonzero">
            <path d="M367.48,57.0399996 C389.49,28.8899996 427.24,14.0099996 462.52,20.1899996 C485.84,23.7399996 507.65,36.0899996 522.96,53.9899996 C529.66,61.6399996 534.83,70.4699996 539.17,79.6299996 C570.73,72.7099996 605.32,86.7199996 623.87,113.01 C638.28,132.6 643.18,158.56 637.41,182.12 C650.96,193.69 661.44,209.14 665.61,226.58 C670.98,246.46 668.07,268.25 658.29,286.3 C652.31,297.81 643.23,307.37 633,315.2 C635.12,328.65 636.21,342.66 632.57,355.97 C629.14,371.33 619.97,384.99 608.13,395.19 C592.33,408.62 572.71,416.48 553.05,422.35 C549.66,423.37 545.32,422.86 543.48,419.46 C540.4,415.43 543.07,409.08 547.84,407.92 C564.31,403.26 580.68,397.03 594.48,386.69 C605.64,378.33 614.62,366.5 617.72,352.74 C620.2,343.12 620.08,333.03 618.64,323.27 C611.67,326.25 604.38,328.54 596.84,329.49 C594.9,329.55 593.9,331.41 592.73,332.68 C580.78,347.87 563.68,359.09 544.85,363.58 C515.205752,371.076299 500.27,362.75 499.57,363.14 C494.47,362.14 489.8,359.83 484.94,358.09 C482.76,369.75 480.83,381.46 478.56,393.1 C478,398.72 475.68,404.27 476.91,409.96 C481.59,447.55 486.19,485.15 490.92,522.73 C478.84,526.25 466.55,529.08 454.13,531.13 C447.17,531.86 440.07,532.48 433.11,531.41 C429.59,530.82 425.96,527.22 427.61,523.46 C431.88,513.57 440.2,504.62 451.11,502.42 C460.51,500.72 469.81,504.57 477.5,509.71 C472.58,484.2 468.58,458.52 463.85,432.97 C462.63,423.6 460.07,414.43 459.29,405.01 C459.89,386.92 461.32,368.85 462.5,350.79 C437.07,361.42 407.07,360.61 382.55,347.85 C380.16,360.18 378.11,372.56 375.78,384.9 C374.82,393.89 370.96,402.71 372.75,411.86 C374.74,424.57 375.81,437.39 377.62,450.12 C379.35,462.4 380.4,474.77 382.25,487.04 C383.63,498.91 384.92,510.8 386.82,522.6 C374.75,526.27 362.42,529.04 349.99,531.11 C342.73,531.81 335.28,532.75 328.07,531.19 C324.73,530.46 321.92,526.78 323.51,523.39 C327.24,514.01 334.99,505.8 344.84,502.89 C354.67,500.21 364.89,504.14 373.03,509.61 C367.44,477.27 361.65,444.98 356.07,412.64 C355.47,409.43 354.67,406.22 354.89,402.93 C355.78,388.05 357.06,373.18 357.58,358.28 C348.92,360.65 340.06,362.66 331.03,362.58 C300.25,363.02 269.86,346.62 253.49,320.52 C251.17,317.48 250.25,312.93 246.23,311.63 C230.76,304.91 217.48,293.84 207.06,280.67 C187.72,287.66 165.939999,290.66 146.029999,284.21 C130.599999,279.45 117.449999,269.01 107.659999,256.35 C96.9199995,242.46 89.4599995,226.34 83.6699995,209.85 C81.5599995,204.19 88.6799995,198.26 93.9699995,200.96 C97.3399995,202.04 98.2299995,205.76 99.4099995,208.66 C105.119999,224.02 112.409999,239.11 123.349999,251.48 C131.299999,260.49 141.709999,267.57 153.439999,270.54 C168.389999,274.67 184.12,271.82 198.69,267.52 C187.66,247.16 183.55,222.86 188.4,200.13 C195.1,163.08 224.67,131.41 261.12,122.04 C262.66,121.54 264.9,121.54 265.06,119.45 C271.02,96.0699996 287.45,75.7099996 308.87,64.6799996 C326.72,55.3699996 347.84,52.6099996 367.48,57.0399996 Z" id="Path" fill="#F14642"></path>
            <path d="M440.08,38.91 C460.29,37.17 481.03,43.48 496.88,56.13 C509.3,65.94 518.71,79.5 523.58,94.56 C524.62,97.58 525.39,100.75 527.01,103.54 C532.65,102.2 537.96,99.66 543.74,98.8 C561.76,95.26 581.09,100.19 595.47,111.53 C609.12,122.26 618.12,138.63 619.82,155.92 C621.32,167.54 618.39,179.12 614.25,189.9 C621.19,194.77 628.36,199.57 633.72,206.27 C645.53,220.35 650.84,239.73 647.52,257.85 C645.23,271.88 637.83,284.85 627.33,294.38 C621.3,276.52 613.01,259.53 604,243.01 C602.52,239.97 599.56,237.38 595.95,238.07 C590.37,238.17 587.4,245.15 590.31,249.62 C599.55,267.01 608.49,284.75 614.13,303.69 C604.73,308.05 594.59,310.62 584.22,310.88 C583.1,312.2 581.98,313.51 580.86,314.82 C549.54439,342.063998 543.74,346.937715 502.14,343.49 C490.28,339.64 479.78,332.58 470.96,323.86 C466.24,326.59 461.63,329.55 456.64,331.78 C437.34,340.46 414.36,340.59 395.01,332.01 C389.47,329.65 384.42,326.33 379.29,323.22 C370.37,330.68 360.38,337.27 348.98,340.17 C331.64,345.04 312.45,342.97 296.61,334.38 C282.73,327.09 271.45,315.03 265.12,300.69 C264.16,298.13 261.99,296.43 259.43,295.68 C234.51,286.95 215.05,264.91 208.63,239.41 C204.7,223.05 205.52,205.4 211.75,189.71 C218.16,173.08 230.33,158.79 245.65,149.68 C256.52,142.94 269.1,139.93 281.59,137.95 C283.03,128.05 285.03,118.02 290.09,109.25 C299.23,92.37 316.06,79.8 334.93,76.13 C344.92,73.91 355.41,74.22 365.27,76.91 C368.54,77.73 371.7,79.05 375.06,79.56 C377.98,76.89 379.81,73.29 382.24,70.2 C395.96,52.25 417.51,40.45 440.08,38.91 Z" id="Shape-path" fill="#FF8B87"></path>
            <path d="M283.13,202.06 C281.93,206.38 281.05,210.95 281.73,215.44 C282.82,220.45 290.11,222.24 293.32,218.26 C295.99,215.54 294.9,211.43 295.58,208.04 C297.92,195.49 309.33,185.42 322.07,184.56 C336.37,183.18 350.3,193.96 352.93,208.01 C353.93,211.62 352.58,216.31 355.96,218.92 C359.7,222.11 366.16,219.96 366.92,214.97 C367.53,203.38 362.79,191.66 354.54,183.52 C346.18,174.94 334.04,170.13 322.04,171.02 C304.17,171.43 287.71,184.86 283.13,202.06 Z" id="Shape-path" fill="#000000"></path>
            <path d="M446.47,171.59 C428.66,175.08 414.06,190.81 412.37,208.92 C412.28,211.99 411.51,215.63 413.75,218.16 C416.71,221.89 423.65,220.81 425.17,216.21 C426.17,212.55 425.83,208.64 426.99,205 C430.16,194.73 439.4,186.58 450.06,184.91 C464.68,182.05 480.35,192.52 483.25,207.13 C484.38,210.96 483.17,215.67 486.23,218.76 C489.85,222.17 496.89,220.09 497.41,214.87 C498.48,198.73 488.67,182.85 474.39,175.56 C465.87,171 455.9,170.14 446.47,171.59 Z" id="Shape-path" fill="#000000"></path>
            <g id="Group" transform="translate(83.000000, 85.500000) rotate(33.000000) translate(-83.000000, -85.500000) translate(27.000000, 21.000000)">
                <path d="M42.0929676,0.247896515 C54.0829676,-1.18210349 66.0929676,3.70789651 75.0729676,11.4778965 C83.8529676,18.6478965 90.9429676,28.7978965 91.7629676,40.3878965 C92.8229676,53.3778965 90.4329676,66.7878965 94.7429676,79.3978965 C95.3129676,82.0278965 97.2129676,84.3578965 97.1529676,87.0978965 C94.6929676,88.5978965 67.0229676,106.197897 65.1429676,107.687897 C62.1329676,104.827897 59.1129676,101.927897 55.6429676,99.6278965 C43.3029676,91.6478965 28.2529676,88.8678965 16.4329676,79.9878965 C8.57296763,74.3078965 3.53296763,65.4778965 1.47296763,56.0978965 C-0.987032374,47.5978965 -0.367032374,38.3478965 3.34296763,30.3078965 C10.0829676,14.7178965 24.9729676,2.22789651 42.0929676,0.247896515 Z" id="Shape-path" fill="#FFB231"></path>
                <path d="M8.23447886,31.1930514 C8.23447886,32.2207539 8.23447886,32.8351877 8.88296763,33.4178965 C9.4377919,33.8906964 10.8731996,33.8906964 11.4152056,32.2207539 C11.6106011,31.1930514 11.4152056,29.5178965 10.2306011,29.5178965 C8.89985295,29.9495315 8.23447886,30.5079164 8.23447886,31.1930514 Z" id="Shape-path" fill="#FFFFFF"></path>
                <path d="M84.9794857,48.0856148 C84.9794857,52.2050233 85.6399358,51.365036 86.2933798,54.9115287 C87.9633798,50.2615287 87.7355659,41.8808794 86.8629676,38.3178965 C85.1128557,35.678042 84.0229676,35.678042 82.4229676,34.2778965 C84.2340822,39.7868761 85.6399358,42.9781773 84.9794857,48.0856148 Z" id="Shape-path" fill="#FFFFFF"></path>
                <path d="M5.63296763,45.3278965 C5.19296763,52.9878965 6.96296763,60.8378965 11.1929676,67.2878965 C13.8029676,70.1863921 14.9561093,71.4399943 15.5367833,71.2769115 C15.9213061,71.1689178 14.8532429,69.5212891 13.8029676,66.5578965 C12.4829676,62.8478965 11.0429676,59.1478965 10.3829676,55.2478965 C8.39065468,46.2153008 9.76296763,43.7778965 9.32296763,38.0578965 C7.52296763,40.1178965 6.2974648,40.1178965 5.63296763,45.3278965 Z" id="Shape-path" fill="#FFFFFF"></path>
                <path d="M53.8037089,25.5040842 C58.9837089,31.0540842 62.2237089,38.0040842 65.6737089,44.6740842 C74.0537089,59.9140842 81.7237089,75.5240842 89.4037089,91.1140842 C91.7937089,89.5040842 94.2337089,87.9640842 96.6937089,86.4640842 C98.3837089,86.2140842 100.443709,86.2740842 101.513709,87.8240842 C103.163709,89.4940842 102.393709,92.0240842 102.563709,94.1340842 C103.883709,94.6340842 105.553709,94.7140842 106.453709,95.9640842 C106.753709,97.6140842 106.843709,99.2840842 107.123709,100.934084 C108.673709,101.634084 110.293709,102.194084 111.893709,102.804084 C111.573709,104.744084 111.903709,107.024084 110.473709,108.604084 C108.673709,110.504084 106.233709,111.684084 104.453709,113.614084 C103.283709,116.434084 103.123709,119.574084 102.543709,122.554084 C99.6337089,124.284084 96.6937089,125.964084 93.7837089,127.714084 C90.9137089,126.664084 88.0137089,125.744084 85.1137089,124.784084 C81.9737089,127.114084 78.5037089,129.254084 74.4137089,128.944084 C73.5237089,127.104084 73.1237089,125.124084 73.3937089,123.094084 C71.7037089,122.284084 70.0237089,121.484084 68.3837089,120.594084 C68.6137089,118.914084 68.8537089,117.234084 69.1337089,115.574084 C67.2237089,114.674084 64.9837089,114.084084 63.7037089,112.284084 C63.4437089,110.544084 63.1637089,108.314084 64.6837089,107.054084 C66.5637089,105.564084 68.5937089,104.304084 70.5637089,102.944084 C59.9037089,90.9040842 47.8437089,80.1640842 37.7237089,67.6440842 C32.5437089,60.9940842 27.4037089,53.9140842 25.3437089,45.6140842 C24.5537089,42.9440842 24.9237089,38.6140842 28.6137089,38.8640842 C33.9037089,39.4340842 37.4837089,44.0540842 41.2337089,47.3640842 C39.8837089,43.0340842 37.1637089,37.9540842 39.5237089,33.5640842 C41.8337089,30.4740842 45.2037089,33.8840842 47.5337089,35.2440842 C46.6037089,31.4940842 45.1337089,27.4340842 46.7037089,23.6440842 C49.0837089,22.0640842 52.0737089,23.6640842 53.8037089,25.5040842 Z M48.9837089,27.2040842 C49.6637089,34.6840842 52.9537089,41.6240842 56.8337089,47.9540842 C58.4637089,49.2240842 55.4937089,51.2940842 54.5437089,49.7840842 C50.4137089,45.2940842 48.0537089,38.4040842 41.7737089,36.4040842 C42.0337089,40.8940842 43.0137089,45.3740842 44.6937089,49.5440842 C46.0937089,53.1140842 48.9937089,55.7140842 51.2437089,58.7340842 C50.0337089,59.1440842 48.4337089,60.3140842 47.5137089,58.7840842 C41.7837089,52.5440842 36.6437089,44.7340842 28.1737089,42.0340842 C28.2937089,48.6840842 32.0937089,54.4040842 35.7937089,59.6440842 C46.6237089,74.9940842 60.5737089,87.7140842 73.3637089,101.354084 C77.8837089,98.2640842 82.5837089,95.4340842 87.1437089,92.4140842 C79.4837089,76.5240842 70.8237089,61.1540842 62.7437089,45.4740842 C59.9037089,39.8540842 57.1837089,34.0540842 52.9437089,29.3240842 C51.8437089,28.3440842 50.7537089,26.4540842 48.9837089,27.2040842 Z" id="Shape" fill="#303030"></path>
            </g>
        </g>
    </g>
</svg>