<?xml version="1.0" encoding="UTF-8"?>
<svg width="647px" height="710px" viewBox="0 0 647 710" version="1.1" xmlns="http://www.w3.org/2000/svg" xmlns:xlink="http://www.w3.org/1999/xlink">
    <!-- Generator: Sketch 57.1 (83088) - https://sketch.com -->
    <title>Zachem-trenirovat-mozg-i-kak-eto-delat-</title>
    <desc>Created with Sketch.</desc>
    <g id="Page-1" stroke="none" stroke-width="1" fill="none" fill-rule="evenodd">
        <g id="Zachem-trenirovat-mozg-i-kak-eto-delat-" transform="translate(0.000000, -1.000000)">
            <g id="#c3e7e9ff">
                <g id="Group-4" transform="translate(9.474543, 27.424414)" fill="#FFFFFF" fill-rule="nonzero">
                    <path d="M288.375457,0.335586401 C289.465457,-0.184413599 290.695457,-0.0244135989 291.825457,0.305586401 C292.055457,1.3855864 292.085457,2.5355864 291.785457,3.6055864 C290.555457,3.8455864 289.305457,3.9155864 288.075457,4.0555864 C288.165457,2.8155864 288.155457,1.5655864 288.375457,0.335586401 Z" id="Path"></path>
                    <path d="M273.505457,1.5855864 C276.655457,0.485586401 280.385457,0.525586401 283.075457,2.7255864 C276.005457,4.9955864 268.625457,7.0155864 262.625457,11.5955864 C260.505457,13.2855864 258.045457,14.4955864 255.275457,14.4856479 C259.065457,7.7255864 266.365457,3.8855864 273.505457,1.5855864 Z" id="Path"></path>
                    <path d="M294.215457,77.4655864 C298.945457,75.3255864 303.575457,72.8255864 308.615457,71.4355864 C308.195457,73.1855864 308.435457,75.5555864 306.435457,76.4055864 C302.255457,78.6255864 297.705457,80.9155864 292.935457,81.1655864 C290.055457,80.8055864 292.745457,77.9255864 294.215457,77.4655864 Z" id="Path"></path>
                    <path d="M565.715457,131.945586 C566.225457,132.025586 567.245457,132.195586 567.755457,132.275586 C572.395457,139.565586 574.315457,148.545586 572.875457,157.075586 C572.255457,158.695586 571.065457,159.985586 570.025457,161.335586 C569.785457,156.285586 569.345457,151.265586 568.905457,146.245586 C568.455457,141.325586 565.685457,136.935586 565.715457,131.945586 Z" id="Path"></path>
                    <path d="M491.615457,147.215586 C492.595457,147.625586 493.555457,148.085586 494.495457,148.595586 C495.555457,154.135586 496.075457,159.795586 496.435457,165.425586 C495.715457,165.405586 494.275457,165.355586 493.565457,165.335586 C491.575457,161.745586 491.925457,157.555586 491.465457,153.625586 C491.205457,151.485586 491.365457,149.345586 491.615457,147.215586 Z" id="Path"></path>
                    <path d="M565.735457,167.665586 C566.995457,167.165586 568.295457,165.295586 569.695457,166.435586 C570.585457,167.685586 569.885457,169.165586 569.765457,170.525586 C568.685457,170.225586 567.605457,169.925586 566.535457,169.635586 C566.335457,169.145586 565.935457,168.155586 565.735457,167.665586 Z" id="Path"></path>
                    <path d="M3.2154568,223.245586 C4.5954568,222.925586 6.0154568,222.985586 7.4054568,222.805586 C7.2754568,223.835586 7.0754568,224.865586 6.8254568,225.875586 C5.6654568,226.205586 4.4954568,226.475586 3.3154568,226.705586 C3.2254568,225.545586 3.1854568,224.405586 3.2154568,223.245586 Z" id="Path"></path>
                    <path d="M76.8554568,227.565586 C79.0554568,227.845586 81.1754568,229.175586 81.2954568,231.605586 C81.9254568,236.395586 82.9054568,241.605586 81.2354568,246.255586 C78.7654568,246.425586 78.8654568,243.705586 78.4554568,241.955586 C77.8354568,237.165586 77.0354568,232.395586 76.8554568,227.565586 Z" id="Path"></path>
                    <path d="M0.0654567956,238.615586 C0.0954567956,235.735586 1.9554568,233.405586 3.7554568,231.345586 C4.1954568,237.065586 3.6954568,242.875586 4.8154568,248.535586 C5.4754568,252.435586 6.9154568,256.135586 8.2354568,259.845586 C7.5754568,260.025586 6.2754568,260.395586 5.6254568,260.575586 C1.3954568,254.125586 -0.374543204,246.275586 0.0654567956,238.615586 Z" id="Path"></path>
                    <path d="M479.835457,423.205586 C479.805457,421.265586 480.455457,419.525586 482.025457,418.345586 C482.915457,419.865586 483.745457,421.435586 484.465457,423.055586 C482.915457,423.125586 481.375457,423.175586 479.835457,423.205586 Z" id="Path"></path>
                    <path d="M469.025457,426.225586 C470.945457,424.695586 473.505457,424.985586 475.795457,424.825586 C472.525457,428.605586 468.445457,431.595586 465.325457,435.515586 C462.355457,439.125586 460.175457,443.285586 457.685457,447.215586 C456.955457,446.935586 456.235457,446.645586 455.525457,446.375586 C457.325457,438.255586 462.375457,431.125586 469.025457,426.225586 Z" id="Path"></path>
                    <path d="M527.025457,477.185586 C529.825457,475.615586 529.315457,479.305586 528.735457,481.005586 C526.695457,484.435586 523.785457,487.265586 520.975457,490.075586 C519.775457,491.445586 517.775457,491.195586 516.175457,491.615586 C518.335457,485.895586 523.015457,481.615586 527.025457,477.185586 Z" id="Path"></path>
                </g>
                <g id="Group-3" transform="translate(0.080000, 0.820000)" fill="#CFCFCF" fill-rule="nonzero">
                    <path d="M519,565.38 C521.24,558.6 524.21,551.82 529.68,547 C530.72,548.18 531.76,549.38 532.8,550.59 C528.81,555.7 525.42,561.3 523.74,567.62 C522.11,566.94 520.57,566.13 519,565.38 Z" id="Path"></path>
                    <path d="M541.37,551.57 C543.57,550.68 545.49,554.09 543.65,555.69 C540.76,558.7 538.19,561.97 536.45,565.79 C535.85,568.04 533.18,566.99 531.83,566.08 C532.16,560.1 536.14,554.38 541.37,551.57 Z" id="Path"></path>
                    <path d="M3.24,309.45 C4.68,310.03 5.96,310.94 7.19,311.88 C22.09,324.23 39.98,333.63 59.31,336.35 C59.66,338.16 59.41,341.42 56.87,341.09 C38.79,338.12 21.87,329.79 7.32,318.8 C4.91,316.85 2.07,315.15 0.58,312.33 C1.27,311.21 2.15,310.2 3.24,309.45 Z" id="Path"></path>
                    <path d="M38.25,356.79 C38.11,354.51 40.27,352.43 42.48,353.74 C49.05,356.34 56.03,357.57 63.09,357.52 C63.14,359.03 63.92,360.75 62.72,362.04 C59.35,363.29 55.78,361.95 52.39,361.53 C47.58,360.43 42.18,360.06 38.25,356.79 Z" id="Path"></path>
                    <path d="M632.29,245.66 C638.53,242.93 646.7,248.28 646.75,255.13 C647.16,259.26 645.29,263.72 641.53,265.72 C636.85,267.98 630.3,267.39 627.08,262.96 C622.82,257.29 625.15,247.71 632.29,245.66 L632.29,245.66 Z M632.33,248.6 C626.39,251.07 626.01,260.58 631.88,263.34 C636.95,266.47 644.48,262.27 644.01,256.19 C644.52,250.22 637.53,246.04 632.33,248.6 Z" id="Shape"></path>
                    <path d="M247.74,8.97 C253.45,4.68 260,0.91 267.31,0.54 C267.37,2.35 268.03,5.16 265.48,5.57 C253.44,9.14 243.52,18.13 237.79,29.19 C231.52,39.5 228.63,51.42 226.86,63.24 C226.22,67.42 226.55,71.7 225.66,75.83 C224.16,76.27 222.43,76.69 221.43,75.1 C220.96,67.05 222.55,59.04 224.06,51.17 C227.66,35.28 234.81,19.4 247.74,8.97 Z" id="Path"></path>
                    <path d="M225.28,2.32 C227.86,2.47 229.25,5.59 227.17,7.39 C218.59,18.02 211.14,30.27 209.45,44.07 C208.83,47.42 210.62,51.69 207.64,54.21 C205.9,54.36 203.8,53.23 204.17,51.23 C203.83,36.03 210.24,21.41 219.05,9.31 C220.93,6.82 222.74,4.19 225.28,2.32 Z" id="Path"></path>
                    <path d="M546.62,73.07 C547.33,70.84 550.17,71.41 551.71,72.39 C564.68,79.17 574.85,90.41 582.23,102.89 C589.15,114.71 594.23,127.71 596.61,141.21 C597.65,143.89 594.91,145.05 592.93,145.76 C589.91,133.14 586.42,120.48 579.89,109.16 C572.7,96.32 562.87,84.4 549.74,77.34 C548.37,76.23 545.34,75.28 546.62,73.07 Z" id="Path"></path>
                    <path d="M522.91,84.01 C534.47,86.77 543.34,95.42 551.22,103.82 C553.4,105.46 552.21,109.37 549.35,108.89 C546.09,106.49 543.6,103.23 540.61,100.53 C535.39,95.57 529.45,91.21 522.58,88.88 C522.67,87.25 522.77,85.63 522.91,84.01 Z" id="Path"></path>
                </g>
                <g id="Group-2" transform="translate(162.100000, 188.770000)" fill="#DCDCDC">
                    <circle id="Oval" cx="20.9" cy="2.23" r="2"></circle>
                    <circle id="Oval-Copy-2" cx="32.9" cy="32.23" r="2"></circle>
                    <circle id="Oval-Copy-3" cx="20.9" cy="38.23" r="2"></circle>
                    <circle id="Oval-Copy-4" cx="8.9" cy="32.23" r="2"></circle>
                    <circle id="Oval-Copy-5" cx="32.9" cy="8.23" r="2"></circle>
                    <circle id="Oval-Copy-6" cx="2.9" cy="20.23" r="2"></circle>
                    <circle id="Oval-Copy-7" cx="8.9" cy="8.23" r="2"></circle>
                    <circle id="Oval-Copy" cx="38.9" cy="20.23" r="2"></circle>
                </g>
                <g id="Group" transform="translate(51.289746, 197.804206)" fill-rule="nonzero">
                    <path d="M177.830254,366.255794 C178.310254,366.235794 179.280254,366.185794 179.760254,366.155794 C180.930254,370.665794 180.480254,375.445794 180.280254,380.055794 C180.370254,381.565794 178.810254,382.115794 177.790254,382.825794 C177.150254,377.335794 176.690254,371.705794 177.830254,366.255794 Z" id="Path" fill="#CFCFCF"></path>
                    <path d="M155.970254,375.835794 C154.600254,372.775794 158.250254,374.595794 159.190254,375.855794 C162.410254,379.325794 166.660254,382.155794 168.310254,386.785794 C163.110254,384.685794 159.570254,379.905794 155.970254,375.835794 Z" id="Path" fill="#CFCFCF"></path>
                    <path d="M193.840254,381.315794 C196.160254,379.395794 197.930254,376.145794 201.090254,375.715794 C201.620254,377.385794 200.130254,378.535794 199.240254,379.695794 C196.130254,382.915794 192.960254,386.115794 189.410254,388.865794 C188.450254,385.445794 191.970254,383.525794 193.840254,381.315794 Z" id="Path" fill="#CFCFCF"></path>
                    <path d="M145.600254,396.005794 C151.450254,395.935794 157.880254,394.335794 163.340254,397.005794 C157.950254,398.575794 152.290254,397.635794 146.780254,397.925794 C146.480254,397.445794 145.890254,396.485794 145.600254,396.005794 Z" id="Path" fill="#CFCFCF"></path>
                    <path d="M194.110254,397.915794 C199.380254,397.575794 204.750254,397.355794 209.990254,398.195794 C209.450254,400.195794 207.290254,399.865794 205.680254,399.985794 C201.710254,400.005794 197.730254,400.165794 193.780254,399.815794 C193.860254,399.335794 194.020254,398.395794 194.110254,397.915794 Z" id="Path" fill="#CFCFCF"></path>
                    <path d="M153.460254,418.865794 C157.310254,415.115794 160.700254,410.805794 165.080254,407.645794 C165.590254,407.895794 166.630254,408.385794 167.150254,408.635794 C163.580254,412.085794 160.310254,415.855794 156.520254,419.085794 C155.680254,420.215794 154.420254,419.205794 153.460254,418.865794 Z" id="Path" fill="#CFCFCF"></path>
                    <path d="M187.180254,408.605794 C191.110254,410.035794 193.650254,413.485794 196.570254,416.285794 C198.190254,417.805794 199.490254,419.635794 200.300254,421.735794 C197.850254,421.115794 195.920254,419.495794 194.240254,417.705794 C191.630254,414.895794 188.240254,412.485794 187.180254,408.605794 Z" id="Path" fill="#CFCFCF"></path>
                    <path d="M175.760254,412.965794 C176.210254,413.105794 177.120254,413.385794 177.580254,413.525794 C178.770254,417.295794 178.280254,421.345794 178.310254,425.245794 C178.420254,427.215794 177.520254,428.985794 176.590254,430.655794 C174.100254,425.175794 174.900254,418.745794 175.760254,412.965794 Z" id="Path" fill="#CFCFCF"></path>
                    <path d="M284.190254,38.2357936 C306.200254,10.0857936 343.950254,-4.79420636 379.230254,1.38579364 C402.550254,4.93579364 424.360254,17.2857936 439.670254,35.1857936 C446.370254,42.8357936 451.540254,51.6657936 455.880254,60.8257936 C487.440254,53.9057936 522.030254,67.9157936 540.580254,94.2057936 C554.990254,113.795794 559.890254,139.755794 554.120254,163.315794 C567.670254,174.885794 578.150254,190.335794 582.320254,207.775794 C587.690254,227.655794 584.780254,249.445794 575.000254,267.495794 C569.020254,279.005794 559.940254,288.565794 549.710254,296.395794 C551.830254,309.845794 552.920254,323.855794 549.280254,337.165794 C545.850254,352.525794 536.680254,366.185794 524.840254,376.385794 C509.040254,389.815794 489.420254,397.675794 469.760254,403.545794 C466.370254,404.565794 462.030254,404.055794 460.190254,400.655794 C457.110254,396.625794 459.780254,390.275794 464.550254,389.115794 C481.020254,384.455794 497.390254,378.225794 511.190254,367.885794 C522.350254,359.525794 531.330254,347.695794 534.430254,333.935794 C536.910254,324.315794 536.790254,314.225794 535.350254,304.465794 C528.380254,307.445794 521.090254,309.735794 513.550254,310.685794 C511.610254,310.745794 510.610254,312.605794 509.440254,313.875794 C497.490254,329.065794 480.390254,340.285794 461.560254,344.775794 C469.290254,330.595794 485.330254,323.645794 493.170254,309.605794 C495.570254,305.435794 496.930254,300.755794 497.570254,296.015794 C498.690254,294.705794 499.810254,293.395794 500.930254,292.075794 C511.300254,291.815794 521.440254,289.245794 530.840254,284.885794 C525.200254,265.945794 516.260254,248.205794 507.020254,230.815794 C504.110254,226.345794 507.080254,219.365794 512.660254,219.265794 C516.270254,218.575794 519.230254,221.165794 520.710254,224.205794 C529.720254,240.725794 538.010254,257.715794 544.040254,275.575794 C554.540254,266.045794 561.940254,253.075794 564.230254,239.045794 C567.550254,220.925794 562.240254,201.545794 550.430254,187.465794 C545.070254,180.765794 537.900254,175.965794 530.960254,171.095794 C535.100254,160.315794 538.030254,148.735794 536.530254,137.115794 C534.830254,119.825794 525.830254,103.455794 512.180254,92.7257936 C497.800254,81.3857936 478.470254,76.4557936 460.450254,79.9957936 C454.670254,80.8557936 449.360254,83.3957936 443.720254,84.7357936 C442.100254,81.9457936 441.330254,78.7757936 440.290254,75.7557936 C435.420254,60.6957936 426.010254,47.1357936 413.590254,37.3257936 C397.740254,24.6757936 377.000254,18.3657936 356.790254,20.1057936 C334.220254,21.6457936 312.670254,33.4457936 298.950254,51.3957936 C296.520254,54.4857936 294.690254,58.0857936 291.770254,60.7557936 C288.410254,60.2457936 285.250254,58.9257936 281.980254,58.1057936 C272.120254,55.4157936 261.630254,55.1057936 251.640254,57.3257936 C232.770254,60.9957936 215.940254,73.5657936 206.800254,90.4457936 C201.740254,99.2157936 199.740254,109.245794 198.300254,119.145794 C185.810254,121.125794 173.230254,124.135794 162.360254,130.875794 C147.040254,139.985794 134.870254,154.275794 128.460254,170.905794 C122.230254,186.595794 121.410254,204.245794 125.340254,220.605794 C131.760254,246.105794 151.220254,268.145794 176.140254,276.875794 C178.700254,277.625794 180.870254,279.325794 181.830254,281.885794 C188.160254,296.225794 199.440254,308.285794 213.320254,315.575794 C229.160254,324.165794 248.350254,326.235794 265.690254,321.365794 C277.090254,318.465794 287.080254,311.875794 296.000254,304.415794 C301.130254,307.525794 306.180254,310.845794 311.720254,313.205794 C331.070254,321.785794 354.050254,321.655794 373.350254,312.975794 C378.340254,310.745794 382.950254,307.785794 387.670254,305.055794 C396.490254,313.775794 406.990254,320.835794 418.850254,324.685794 C420.030254,330.515794 421.860254,337.115794 419.100254,342.755794 C418.390254,343.155794 416.980254,343.945794 416.280254,344.335794 C411.180254,343.335794 406.510254,341.025794 401.650254,339.285794 C399.470254,350.945794 397.540254,362.655794 395.270254,374.295794 C394.710254,379.915794 392.390254,385.465794 393.620254,391.155794 C398.300254,428.745794 402.900254,466.345794 407.630254,503.925794 C395.550254,507.445794 383.260254,510.275794 370.840254,512.325794 C363.880254,513.055794 356.780254,513.675794 349.820254,512.605794 C346.300254,512.015794 342.670254,508.415794 344.320254,504.655794 C348.590254,494.765794 356.910254,485.815794 367.820254,483.615794 C377.220254,481.915794 386.520254,485.765794 394.210254,490.905794 C389.290254,465.395794 385.290254,439.715794 380.560254,414.165794 C379.340254,404.795794 376.780254,395.625794 376.000254,386.205794 C376.600254,368.115794 378.030254,350.045794 379.210254,331.985794 C353.780254,342.615794 323.780254,341.805794 299.260254,329.045794 C296.870254,341.375794 294.820254,353.755794 292.490254,366.095794 C291.530254,375.085794 287.670254,383.905794 289.460254,393.055794 C291.450254,405.765794 292.520254,418.585794 294.330254,431.315794 C296.060254,443.595794 297.110254,455.965794 298.960254,468.235794 C300.340254,480.105794 301.630254,491.995794 303.530254,503.795794 C291.460254,507.465794 279.130254,510.235794 266.700254,512.305794 C259.440254,513.005794 251.990254,513.945794 244.780254,512.385794 C241.440254,511.655794 238.630254,507.975794 240.220254,504.585794 C243.950254,495.205794 251.700254,486.995794 261.550254,484.085794 C271.380254,481.405794 281.600254,485.335794 289.740254,490.805794 C284.150254,458.465794 278.360254,426.175794 272.780254,393.835794 C272.180254,390.625794 271.380254,387.415794 271.600254,384.125794 C272.490254,369.245794 273.770254,354.375794 274.290254,339.475794 C265.630254,341.845794 256.770254,343.855794 247.740254,343.775794 C216.960254,344.215794 186.570254,327.815794 170.200254,301.715794 C167.880254,298.675794 166.960254,294.125794 162.940254,292.825794 C147.470254,286.105794 134.190254,275.035794 123.770254,261.865794 C104.430254,268.855794 82.6502535,271.855794 62.7402535,265.405794 C47.3102535,260.645794 34.1602535,250.205794 24.3702535,237.545794 C13.6302535,223.655794 6.17025352,207.535794 0.380253518,191.045794 C-1.72974648,185.385794 5.39025352,179.455794 10.6802535,182.155794 C14.0502535,183.235794 14.9402535,186.955794 16.1202535,189.855794 C21.8302535,205.215794 29.1202535,220.305794 40.0602535,232.675794 C48.0102535,241.685794 58.4202535,248.765794 70.1502535,251.735794 C85.1002535,255.865794 100.830254,253.015794 115.400254,248.715794 C104.370254,228.355794 100.260254,204.055794 105.110254,181.325794 C111.810254,144.275794 141.380254,112.605794 177.830254,103.235794 C179.370254,102.735794 181.610254,102.735794 181.770254,100.645794 C187.730254,77.2657936 204.160254,56.9057936 225.580254,45.8757936 C243.430254,36.5657936 264.550254,33.8057936 284.190254,38.2357936 Z" id="Path" fill="#F14642"></path>
                </g>
            </g>
            <g id="#ffb231ff" transform="translate(3.000000, 21.000000)" fill="#FFB231" fill-rule="nonzero">
                <path d="M278.07,2.99 C289.65,-1.33 302.77,0.93 313.53,6.47 C325.42,12.57 335.38,23.62 337.86,37.01 C340.36,48.48 337.01,60.41 331.38,70.44 C327.94,76.69 323.07,82.26 316.89,85.91 C308.56,90.96 298.8,92.49 289.74,95.68 C281.98,98.15 274.96,102.52 268.9,107.91 C266.96,105.6 264.6,103.71 262.3,101.79 C273.12,91.43 284.15,81.29 294.54,70.5 C301.32,63.32 309.36,57.09 314.37,48.43 C315.49,46.22 316.32,42.53 313.8,40.99 C309.86,40.64 306.58,43.26 303.46,45.28 C303.9,42.53 305.77,37.83 301.89,36.83 C297.24,36.57 293.65,40.27 289.97,42.56 C291.9,38.08 295.18,33.25 293.93,28.18 C293.42,26.02 291.1,24.99 289.14,26.05 C281.39,29.41 275.99,36.36 271.12,43 C261.2,57.03 254.22,72.84 245.23,87.44 C243.33,85.74 241.42,84.04 239.58,82.27 C243.92,76.05 245.64,68.45 246.49,61.04 C248.41,48.76 247.73,35.71 253.37,24.32 C258.18,14.13 267.76,6.99 278.07,2.99 L278.07,2.99 Z M294.85,6.76 C294.63,7.99 294.64,9.24 294.55,10.48 C295.78,10.34 297.03,10.27 298.26,10.03 C298.56,8.96 298.53,7.81 298.3,6.73 C297.17,6.4 295.94,6.24 294.85,6.76 L294.85,6.76 Z M279.98,8.01 C272.84,10.31 265.54,14.15 261.75,20.9100615 C264.52,20.92 266.98,19.71 269.1,18.02 C275.1,13.44 282.48,11.42 289.55,9.15 C286.86,6.95 283.13,6.91 279.98,8.01 L279.98,8.01 Z M300.69,83.89 C299.22,84.35 296.53,87.23 299.41,87.59 C304.18,87.34 308.73,85.05 312.91,82.83 C314.91,81.98 314.67,79.61 315.09,77.86 C310.05,79.25 305.42,81.75 300.69,83.89 Z" id="Shape"></path>
                <path d="M278.1,39.14 C281.58,35.04 285.44,30.66 290.7,28.94 C291.34,37.96 284.56,45.16 280.55,52.65 C279.44,53.72 280.8,55.26 282.08,55.1 C284.36,52.63 285.69,49.38 288.34,47.24 C291.9,44.21 295.99,41.8 300.32,40.05 L300.7,41.18 C299.27,47.57 294,52.05 290.5,57.33 C291.53,57.82 292.72,59.36 293.73,57.9 C299.11,52.51 304.7,46.35 312.31,44.37 C310.49,50.46 305.84,55.07 301.48,59.46 C287.42,72.72 274.52,87.17 260.06,100.02 C256.15,96.35 251.77,93.21 247.96,89.46 C257.06,72.19 266.01,54.59 278.1,39.14 Z" id="Path"></path>
                <path d="M513.76,102.92 C515.9,101.62 517.97,100.22 520.13,98.94 C533.37,114.1 555.36,115.03 570.5,127.41 C579.49,134.58 583.93,145.89 585.33,157.03 C586.37,164.09 584.28,171.13 581.52,177.55 C574.93,191.33 562.18,202.42 547.08,205.58 C536.59,207.6 525.47,205.31 516.58,199.41 C507.03,193.09 498.39,184.3 495.04,173.09 C492.81,164.94 493.29,156.41 493.36,148.06 C493.41,138.45 491.86,128.63 487.43,120.01 C490.14,118.57 492.65,116.8 495.17,115.05 C502.2,128.61 508.82,142.39 516.36,155.69 C521.2,164.06 524.77,173.38 531.59,180.42 C533.29,182.28 535.85,182.73 538.14,183.44 C539.75,179.27 539.04,174.83 537.58,170.73 C540.03,171.93 543.93,175.19 545.9,171.62 C547.65,167.43 545.09,162.87 544.15,158.77 C547.05,161.3 549.83,164.09 553.32,165.8 C555,166.64 557.14,167.11 558.82,165.97 C560.78,164.08 560.07,161.11 559.44,158.8 C556.57,149.87 550.78,142.27 544.77,135.22 C534.93,123.98 523.9,113.88 513.76,102.92 L513.76,102.92 Z M572.19,138.37 C572.16,143.36 574.93,147.75 575.38,152.67 C575.82,157.69 576.26,162.71 576.5,167.76 C577.54,166.41 578.73,165.12 579.35,163.5 C580.79,154.97 578.87,145.99 574.23,138.7 C573.72,138.62 572.7,138.45 572.19,138.37 L572.19,138.37 Z M498.09,153.64 C497.84,155.77 497.68,157.91 497.94,160.05 C498.4,163.98 498.05,168.17 500.04,171.76 C500.75,171.78 502.19,171.83 502.91,171.85 C502.55,166.22 502.03,160.56 500.97,155.02 C500.03,154.51 499.07,154.05 498.09,153.64 L498.09,153.64 Z M572.21,174.09 C572.41,174.58 572.81,175.57 573.01,176.06 C574.08,176.35 575.16,176.65 576.24,176.95 C576.36,175.59 577.06,174.11 576.17,172.86 C574.77,171.72 573.47,173.59 572.21,174.09 Z" id="Shape"></path>
                <path d="M497.46,113.75 C501.94,110.56 506.74,107.83 511.16,104.54 C525.26,119.5 540.99,133.22 552.27,150.59 C554.48,154.32 556.78,158.31 556.79,162.79 C555.59,163.91 554.18,162.44 553.05,161.97 C546.62,158.2 542.16,152.12 537.21,146.75 C535.88,145.33 534.23,145.79 534.44,147.91 C536.03,150.14 538.13,152.01 539.45,154.44 C542,159.09 542.89,164.44 543.34,169.67 C537.01,166.79 534.2,160.17 529.87,155.22 C529.28,155.51 528.09,156.1 527.5,156.39 C531.51,163.54 536.06,170.98 536.02,179.47 C530.79,176.19 527.68,170.61 524.84,165.33 C518.99,153.91 512.78,142.67 506.57,131.44 C503.34,125.64 500.77,119.5 497.46,113.75 Z" id="Path"></path>
                <path d="M4.25,230.02 C10.99,214.43 25.88,201.94 43,199.96 C54.99,198.53 67,203.42 75.98,211.19 C84.76,218.36 91.85,228.51 92.67,240.1 C93.73,253.09 91.34,266.5 95.65,279.11 C96.22,281.74 98.12,284.07 98.06,286.81 C95.6,288.31 93.16,289.85 90.77,291.46 C83.09,275.87 75.42,260.26 67.04,245.02 C63.59,238.35 60.35,231.4 55.17,225.85 C53.44,224.01 50.45,222.41 48.07,223.99 C46.5,227.78 47.97,231.84 48.9,235.59 C46.57,234.23 43.2,230.82 40.89,233.91 C38.53,238.3 41.25,243.38 42.6,247.71 C38.85,244.4 35.27,239.78 29.98,239.21 C26.29,238.96 25.92,243.29 26.71,245.96 C28.77,254.26 33.91,261.34 39.09,267.99 C49.21,280.51 61.27,291.25 71.93,303.29 C69.96,304.65 67.93,305.91 66.05,307.4 C63.04,304.54 60.02,301.64 56.55,299.34 C44.21,291.36 29.16,288.58 17.34,279.7 C9.48,274.02 4.44,265.19 2.38,255.81 C-0.08,247.31 0.54,238.06 4.25,230.02 L4.25,230.02 Z M9.69,229.67 C9.66,230.83 9.7,231.97 9.79,233.13 C10.97,232.9 12.14,232.63 13.3,232.3 C13.55,231.29 13.75,230.26 13.88,229.23 C12.49,229.41 11.07,229.35 9.69,229.67 L9.69,229.67 Z M83.33,233.99 C83.51,238.82 84.31,243.59 84.93,248.38 C85.34,250.13 85.24,252.85 87.71,252.68 C89.38,248.03 88.4,242.82 87.77,238.03 C87.65,235.6 85.53,234.27 83.33,233.99 L83.33,233.99 Z M6.54,245.04 C6.1,252.7 7.87,260.55 12.1,267 C12.75,266.82 14.05,266.45 14.71,266.27 C13.39,262.56 11.95,258.86 11.29,254.96 C10.17,249.3 10.67,243.49 10.23,237.77 C8.43,239.83 6.57,242.16 6.54,245.04 Z" id="Shape"></path>
                <path d="M50.35,227.55 C52.12,226.8 53.21,228.69 54.31,229.67 C58.55,234.4 61.27,240.2 64.11,245.82 C72.19,261.5 80.85,276.87 88.51,292.76 C83.95,295.78 79.25,298.61 74.73,301.7 C61.94,288.06 47.99,275.34 37.16,259.99 C33.46,254.75 29.66,249.03 29.54,242.38 C38.01,245.08 43.15,252.89 48.88,259.13 C49.8,260.66 51.4,259.49 52.61,259.08 C50.36,256.06 47.46,253.46 46.06,249.89 C44.38,245.72 43.4,241.24 43.14,236.75 C49.42,238.75 51.78,245.64 55.91,250.13 C56.86,251.64 59.83,249.57 58.2,248.3 C54.32,241.97 51.03,235.03 50.35,227.55 Z" id="Path"></path>
                <path d="M471.03,429.17 C481.79,419.65 497.2,417.31 511,419.7 C521.96,421.9 532.53,427.82 538.75,437.32 C545.81,447.6 547.34,460.68 545.86,472.82 C545.22,477.56 543.86,482.24 541.46,486.41 C533.62,500.45 517.58,507.4 509.85,521.58 C508.36,524.05 507.14,526.68 505.81,529.24 C502.98,528.29 500.05,527.69 497.17,526.98 C500.76,517.27 504.78,507.72 508.31,497.99 C511.89,488.01 515.32,477.98 519.03,468.05 C520.71,461.96 523.23,454.86 519.07,449.19 C515.03,450.93 512.26,454.39 510.15,458.12 C509.43,455.64 509.51,451.34 506.02,451.15 C501.31,452.36 499.46,457.49 496.99,461.14 C496.74,456.11 497.82,449.94 493.77,446.08 C490.55,443.96 487.92,448.22 486.43,450.58 C479.21,463.8 478.77,479.29 477.58,493.95 C476.99,502.98 476.42,512.02 475.86,521.06 C473.25,520.43 470.63,519.79 468,519.27 L467.39,519.56 C470.15,513.92 468.32,507.32 467.14,501.49 C463.36,487.69 455.78,474.63 456.15,459.96 C456.37,448.18 462.62,437.12 471.03,429.17 L471.03,429.17 Z M486.31,429.63 C487.85,429.6 489.39,429.55 490.94,429.48 C490.22,427.86 489.39,426.29 488.5,424.77 C486.93,425.95 486.28,427.69 486.31,429.63 L486.31,429.63 Z M475.5,432.65 C468.85,437.55 463.8,444.68 462,452.8 C462.71,453.07 463.43,453.36 464.16,453.64 C466.65,449.71 468.83,445.55 471.8,441.94 C474.92,438.02 479,435.03 482.27,431.25 C479.98,431.41 477.42,431.12 475.5,432.65 L475.5,432.65 Z M533.5,483.61 C529.49,488.04 524.81,492.32 522.65,498.04 C524.25,497.62 526.25,497.87 527.45,496.5 C530.26,493.69 533.17,490.86 535.21,487.43 C535.79,485.73 536.3,482.04 533.5,483.61 Z" id="Shape"></path>
                <path d="M491.56,448.66 C494.65,452.38 494.09,457.49 494.13,462 C494.14,466.72 492.37,471.32 492.91,476.04 C493.45,476.08 494.53,476.14 495.07,476.18 C496.08,473.23 495.91,470.01 497.11,467.12 C498.99,462.44 502.03,458.31 505.48,454.66 C507.65,460.8 505.02,467.07 504.07,473.15 C503.63,474.22 505.93,476.18 506.42,474.56 C508.4,470.92 508.8,466.6 510.98,463.03 C512.91,459.81 514.3,455.8 517.73,453.85 C518.65,456.28 518.12,458.89 517.65,461.36 C515.78,470.2 511.88,478.41 509.01,486.93 C504.23,500.05 500.2,513.47 494.28,526.15 C489.15,524.6 483.91,523.49 478.79,521.94 C479.46,515.66 479.5,509.35 479.74,503.05 C480.65,489.99 481.69,476.87 484.56,464.07 C485.83,458.52 487.89,453.09 491.56,448.66 Z" id="Path"></path>
            </g>
            <g id="#303030ff" transform="translate(29.000000, 46.000000)" fill="#303030" fill-rule="nonzero">
                <path d="M245.12,18 C249.99,11.36 255.39,4.41 263.14,1.05 C265.1,-0.01 267.42,1.02 267.93,3.18 C269.18,8.25 265.9,13.08 263.97,17.56 C267.65,15.27 271.24,11.57 275.89,11.83 C279.77,12.83 277.9,17.53 277.46,20.28 C280.58,18.26 283.86,15.64 287.8,15.99 C290.32,17.53 289.49,21.22 288.37,23.43 C283.36,32.09 275.32,38.32 268.54,45.5 C258.15,56.29 247.12,66.43 236.3,76.79 C238.6,78.71 240.96,80.6 242.9,82.91 C243.4,83.87 243.77,84.9 244.2,85.9 C242.61,88.33 240.21,89.89 237.38,90.46 C237.04,91.95 237.59,94.02 235.97,94.88 C234.72,95.66 233.35,96.17 232.01,96.76 C231.94,98.66 232.51,101.73 229.87,102.08 C225.4,103.45 222.19,99.83 219,97.42 C216.04,97.84 213.07,98.16 210.13,98.66 C207.72,96.46 205.02,94.53 202.97,91.99 C202.48,89.08 202.75,86.1 202.67,83.16 C199.79,80.12 194.47,76.87 196.78,71.98 C198.13,71.66 199.49,71.34 200.85,71.02 C201.2,69.01 200.9,66.26 203.05,65.17 C204.26,64.83 205.5,64.69 206.74,64.5 C207.09,62.71 206.86,60.65 208.09,59.16 C209.25,57.28 211.68,57.5 213.58,57.27 C215.42,59.04 217.33,60.74 219.23,62.44 C228.22,47.84 235.2,32.03 245.12,18 L245.12,18 Z M252.1,14.14 C240.01,29.59 231.06,47.19 221.96,64.46 C225.77,68.21 230.15,71.35 234.06,75.02 C248.52,62.17 261.42,47.72 275.48,34.46 C279.84,30.07 284.49,25.46 286.31,19.37 C278.7,21.35 273.11,27.51 267.73,32.9 C266.72,34.36 265.53,32.82 264.5,32.33 C268,27.05 273.27,22.57 274.7,16.18 L274.32,15.05 C269.99,16.8 265.9,19.21 262.34,22.24 C259.69,24.38 258.36,27.63 256.08,30.1 C254.8,30.26 253.44,28.72 254.55,27.65 C258.56,20.16 265.34,12.96 264.7,3.94 C259.44,5.66 255.58,10.04 252.1,14.14 Z" id="Shape"></path>
                <path d="M472.95,55.93 C475.75,54.88 478.1,52.86 480.98,51.96 C482.48,52.17 483.75,53.06 485.1,53.71 C485.06,55.06 485.03,56.42 485.01,57.77 C486.76,58.71 488.8,59.41 490.02,61.1 C489.98,62.52 489.59,63.89 489.29,65.27 C491.29,66.31 493.71,67.08 494.85,69.22 C495.3,70.8 494.38,72.39 494.13,73.94 C491.97,75.22 489.9,76.62 487.76,77.92 C497.9,88.88 508.93,98.98 518.77,110.22 C524.78,117.27 530.57,124.87 533.44,133.8 C534.07,136.11 534.78,139.08 532.82,140.97 C531.14,142.11 529,141.64 527.32,140.8 C523.83,139.09 521.05,136.3 518.15,133.77 C519.09,137.87 521.65,142.43 519.9,146.62 C517.93,150.19 514.03,146.93 511.58,145.73 C513.04,149.83 513.75,154.27 512.14,158.44 C509.85,157.73 507.29,157.28 505.59,155.42 C498.77,148.38 495.2,139.06 490.36,130.69 C482.82,117.39 476.2,103.61 469.17,90.05 C466.65,91.8 464.14,93.57 461.43,95.01 C459.86,94.94 458.34,94.46 456.83,94.1 C456.27,91.78 456.01,89.41 455.91,87.03 C454.61,86.67 453.3,86.33 452.01,85.96 C451.81,84.03 451.67,82.1 451.56,80.17 C449.93,79.74 448.31,79.28 446.7,78.83 C446.83,76.6 447.17,74.39 447.86,72.26 C449.92,70.91 452.16,69.67 453.76,67.74 C455.01,64.73 455.24,61.44 456.01,58.3 C458.83,56.84 461.57,55.23 464.25,53.52 C467.14,54.34 469.97,55.43 472.95,55.93 L472.95,55.93 Z M471.46,88.75 C474.77,94.5 477.34,100.64 480.57,106.44 C486.78,117.67 492.99,128.91 498.84,140.33 C501.68,145.61 504.79,151.19 510.02,154.47 C510.06,145.98 505.51,138.54 501.5,131.39 C502.09,131.1 503.28,130.51 503.87,130.22 C508.2,135.17 511.01,141.79 517.34,144.67 C516.89,139.44 516,134.09 513.45,129.44 C512.13,127.01 510.03,125.14 508.44,122.91 C508.23,120.79 509.88,120.33 511.21,121.75 C516.16,127.12 520.62,133.2 527.05,136.97 C528.18,137.44 529.59,138.91 530.79,137.79 C530.78,133.31 528.48,129.32 526.27,125.59 C514.99,108.22 499.26,94.5 485.16,79.54 C480.74,82.83 475.94,85.56 471.46,88.75 Z" id="Shape"></path>
                <path d="M22.07,198.99 C24.45,197.41 27.44,199.01 29.17,200.85 C34.35,206.4 37.59,213.35 41.04,220.02 C49.42,235.26 57.09,250.87 64.77,266.46 C67.16,264.85 69.6,263.31 72.06,261.81 C73.75,261.56 75.81,261.62 76.88,263.17 C78.53,264.84 77.76,267.37 77.93,269.48 C79.25,269.98 80.92,270.06 81.82,271.31 C82.12,272.96 82.21,274.63 82.49,276.28 C84.04,276.98 85.66,277.54 87.26,278.15 C86.94,280.09 87.27,282.37 85.84,283.95 C84.04,285.85 81.6,287.03 79.82,288.96 C78.65,291.78 78.49,294.92 77.91,297.9 C75,299.63 72.06,301.31 69.15,303.06 C66.28,302.01 63.38,301.09 60.48,300.13 C57.34,302.46 53.87,304.6 49.78,304.29 C48.89,302.45 48.49,300.47 48.76,298.44 C47.07,297.63 45.39,296.83 43.75,295.94 C43.98,294.26 44.22,292.58 44.5,290.92 C42.59,290.02 40.35,289.43 39.07,287.63 C38.81,285.89 38.53,283.66 40.05,282.4 C41.93,280.91 43.96,279.65 45.93,278.29 C35.27,266.25 23.21,255.51 13.09,242.99 C7.91,236.34 2.77,229.26 0.71,220.96 C-0.08,218.29 0.29,213.96 3.98,214.21 C9.27,214.78 12.85,219.4 16.6,222.71 C15.25,218.38 12.53,213.3 14.89,208.91 C17.2,205.82 20.57,209.23 22.9,210.59 C21.97,206.84 20.5,202.78 22.07,198.99 L22.07,198.99 Z M24.35,202.55 C25.03,210.03 28.32,216.97 32.2,223.3 C33.83,224.57 30.86,226.64 29.91,225.13 C25.78,220.64 23.42,213.75 17.14,211.75 C17.4,216.24 18.38,220.72 20.06,224.89 C21.46,228.46 24.36,231.06 26.61,234.08 C25.4,234.49 23.8,235.66 22.88,234.13 C17.15,227.89 12.01,220.08 3.54,217.38 C3.66,224.03 7.46,229.75 11.16,234.99 C21.99,250.34 35.94,263.06 48.73,276.7 C53.25,273.61 57.95,270.78 62.51,267.76 C54.85,251.87 46.19,236.5 38.11,220.82 C35.27,215.2 32.55,209.4 28.31,204.67 C27.21,203.69 26.12,201.8 24.35,202.55 Z" id="Shape"></path>
                <path d="M261.04,304.02 C273.04,303.13 285.18,307.94 293.54,316.52 C301.79,324.66 306.53,336.38 305.92,347.97 C305.16,352.96 298.7,355.11 294.96,351.92 C291.58,349.31 292.93,344.62 291.93,341.01 C289.3,326.96 275.37,316.18 261.07,317.56 C248.33,318.42 236.92,328.49 234.58,341.04 C233.9,344.43 234.99,348.54 232.32,351.26 C229.11,355.24 221.82,353.45 220.73,348.44 C220.05,343.95 220.93,339.38 222.13,335.06 C226.71,317.86 243.17,304.43 261.04,304.02 Z" id="Path"></path>
                <path d="M385.47,304.59 C394.9,303.14 404.87,304 413.39,308.56 C427.67,315.85 437.48,331.73 436.41,347.87 C435.89,353.09 428.85,355.17 425.23,351.76 C422.17,348.67 423.38,343.96 422.25,340.13 C419.35,325.52 403.68,315.05 389.06,317.91 C378.4,319.58 369.16,327.73 365.99,338 C364.83,341.64 365.17,345.55 364.17,349.21 C362.65,353.81 355.71,354.89 352.75,351.16 C350.51,348.63 351.28,344.99 351.37,341.92 C353.06,323.81 367.66,308.08 385.47,304.59 Z" id="Path"></path>
                <path d="M460.43,425.58 C461.92,423.22 464.55,418.96 467.77,421.08 C471.82,424.94 470.74,431.11 470.99,436.14 C473.46,432.49 475.31,427.36 480.02,426.15 C483.51,426.34 483.43,430.64 484.15,433.12 C486.26,429.39 489.03,425.93 493.07,424.19 C497.23,429.86 494.71,436.96 493.03,443.05 C489.32,452.98 485.89,463.01 482.31,472.99 C478.78,482.72 474.76,492.27 471.17,501.98 C474.05,502.69 476.98,503.29 479.81,504.24 C481.11,505.4 482.24,507.11 482.01,508.95 C480.99,510.68 479.47,512.04 478.34,513.68 C478.56,515.09 479.01,516.49 479.07,517.94 C478.39,519.44 477,520.46 475.94,521.69 C476.43,523.05 477,524.41 477.28,525.86 C476.54,527.05 475.63,528.11 474.78,529.22 C471.51,529.23 468.31,528.62 465.09,528.22 C462.02,529.03 459.6,531.37 456.97,533.08 C453.72,531.9 450.45,530.81 447.15,529.77 C446,527.24 444.96,524.64 443.43,522.32 C440.77,519.82 435.53,520.72 433.99,516.91 C432.86,514.51 435.4,512.99 436.79,511.51 C435.88,509.56 435.51,507.46 435.77,505.34 C437.03,504.67 438.29,503.99 439.56,503.32 C439.01,501.89 438.47,500.47 437.93,499.05 C438.14,498.07 438.35,497.1 438.57,496.14 C439.27,495.75 440.68,494.96 441.39,494.56 L442,494.27 C444.63,494.79 447.25,495.43 449.86,496.06 C450.42,487.02 450.99,477.98 451.58,468.95 C452.77,454.29 453.21,438.8 460.43,425.58 L460.43,425.58 Z M465.56,423.66 C461.89,428.09 459.83,433.52 458.56,439.07 C455.69,451.87 454.65,464.99 453.74,478.05 C453.5,484.35 453.46,490.66 452.79,496.94 C457.91,498.49 463.15,499.6 468.28,501.15 C474.2,488.47 478.23,475.05 483.01,461.93 C485.88,453.41 489.78,445.2 491.65,436.36 C492.12,433.89 492.65,431.28 491.73,428.85 C488.3,430.8 486.91,434.81 484.98,438.03 C482.8,441.6 482.4,445.92 480.42,449.56 C479.93,451.18 477.63,449.22 478.07,448.15 C479.02,442.07 481.65,435.8 479.48,429.66 C476.03,433.31 472.99,437.44 471.11,442.12 C469.91,445.01 470.08,448.23 469.07,451.18 C468.53,451.14 467.45,451.08 466.91,451.04 C466.37,446.32 468.14,441.72 468.13,437 C468.09,432.49 468.65,427.38 465.56,423.66 Z" id="Shape"></path>
            </g>
            <g id="#f14642ff" transform="translate(51.000000, 197.000000)"></g>
            <g id="#ff8b87ff" transform="translate(174.000000, 217.000000)" fill="#FF8B87" fill-rule="nonzero">
                <path d="M176.24,32.2 C189.96,14.25 211.51,2.45 234.08,0.91 C254.29,-0.83 275.03,5.48 290.88,18.13 C303.3,27.94 312.71,41.5 317.58,56.56 C318.62,59.58 319.39,62.75 321.01,65.54 C326.65,64.2 331.96,61.66 337.74,60.8 C355.76,57.26 375.09,62.19 389.47,73.53 C403.12,84.26 412.12,100.63 413.82,117.92 C415.32,129.54 412.39,141.12 408.25,151.9 C415.19,156.77 422.36,161.57 427.72,168.27 C439.53,182.35 444.84,201.73 441.52,219.85 C439.23,233.88 431.83,246.85 421.33,256.38 C415.3,238.52 407.01,221.53 398,205.01 C396.52,201.97 393.56,199.38 389.95,200.07 C384.37,200.17 381.4,207.15 384.31,211.62 C393.55,229.01 402.49,246.75 408.13,265.69 C398.73,270.05 388.59,272.62 378.22,272.88 C377.1,274.2 375.98,275.51 374.86,276.82 C376.34,264.68 374.81,251.6 367.75,241.32 C361.53,231.82 350.96,225.9 340,223.7 C326.2,221.31 310.79,223.65 300.03,233.17 C291.62,241.12 285.37,252.18 285.15,263.96 C284.78,278.63 292.36,291.69 296.14,305.49 C284.28,301.64 273.78,294.58 264.96,285.86 C260.24,288.59 255.63,291.55 250.64,293.78 C231.34,302.46 208.36,302.59 189.01,294.01 C183.47,291.65 178.42,288.33 173.29,285.22 C164.37,292.68 154.38,299.27 142.98,302.17 C125.64,307.04 106.45,304.97 90.61,296.38 C76.73,289.09 65.45,277.03 59.12,262.69 C58.16,260.13 55.99,258.43 53.43,257.68 C28.51,248.95 9.05,226.91 2.63,201.41 C-1.3,185.05 -0.48,167.4 5.75,151.71 C12.16,135.08 24.33,120.79 39.65,111.68 C50.52,104.94 63.1,101.93 75.59,99.95 C77.03,90.05 79.03,80.02 84.09,71.25 C93.23,54.37 110.06,41.8 128.93,38.13 C138.92,35.91 149.41,36.22 159.27,38.91 C162.54,39.73 165.7,41.05 169.06,41.56 C171.98,38.89 173.81,35.29 176.24,32.2 L176.24,32.2 Z M116.04,133.02 C98.17,133.43 81.71,146.86 77.13,164.06 C75.93,168.38 75.05,172.95 75.73,177.44 C76.82,182.45 84.11,184.24 87.32,180.26 C89.99,177.54 88.9,173.43 89.58,170.04 C91.92,157.49 103.33,147.42 116.07,146.56 C130.37,145.18 144.3,155.96 146.93,170.01 C147.93,173.62 146.58,178.31 149.96,180.92 C153.7,184.11 160.16,181.96 160.92,176.97 C161.53,165.38 156.79,153.66 148.54,145.52 C140.18,136.94 128.04,132.13 116.04,133.02 L116.04,133.02 Z M240.47,133.59 C222.66,137.08 208.06,152.81 206.37,170.92 C206.28,173.99 205.51,177.63 207.75,180.16 C210.71,183.89 217.65,182.81 219.17,178.21 C220.17,174.55 219.83,170.64 220.99,167 C224.16,156.73 233.4,148.58 244.06,146.91 C258.68,144.05 274.35,154.52 277.25,169.13 C278.38,172.96 277.17,177.67 280.23,180.76 C283.85,184.17 290.89,182.09 291.41,176.87 C292.48,160.73 282.67,144.85 268.39,137.56 C259.87,133 249.9,132.14 240.47,133.59 Z" id="Shape"></path>
            </g>
        </g>
    </g>
</svg>