<?xml version="1.0" encoding="UTF-8"?>
<svg width="483px" height="483px" viewBox="0 0 483 483" version="1.1" xmlns="http://www.w3.org/2000/svg" xmlns:xlink="http://www.w3.org/1999/xlink">
    <!-- Generator: Sketch 57.1 (83088) - https://sketch.com -->
    <title>Group</title>
    <desc>Created with Sketch.</desc>
    <g id="Page-1" stroke="none" stroke-width="1" fill="none" fill-rule="evenodd">
        <g id="Group" fill-rule="nonzero">
            <path d="M181.746525,36.1047222 C203.761841,9.66780973 241.520958,-4.30665763 276.809478,1.49725423 C300.13511,4.83121655 321.950377,16.4296488 337.264075,33.240332 C343.965693,40.424786 349.136942,48.7174303 353.47799,57.3199923 C385.045612,50.8211136 419.643965,63.9785255 438.198445,88.6686295 C452.611926,107.066467 457.513109,131.446653 451.741715,153.572893 C465.294988,164.438793 475.777519,178.948573 479.948526,195.32725 C485.319823,213.997439 482.40912,234.461393 472.626758,251.412948 C466.645314,262.222499 457.563121,271.200719 447.33065,278.554219 C449.451162,291.18571 450.541426,304.343122 446.900547,316.843133 C443.469718,331.268389 434.297504,344.097101 422.454644,353.676373 C406.650828,366.289081 387.02609,373.670755 367.361342,379.183532 C363.970523,380.141459 359.629475,379.662496 357.789031,376.469405 C354.708287,372.684654 357.378932,366.721087 362.150084,365.63168 C378.624061,361.255267 394.998015,355.404398 408.801348,345.693646 C419.964043,337.842399 428.946211,326.732322 432.04696,313.809696 C434.527559,304.775128 434.40753,295.299162 432.967182,286.133113 C425.995499,288.931764 418.703738,291.082404 411.161917,291.974591 C409.221449,292.03094 408.221207,293.777748 407.050925,294.970461 C395.098039,309.236064 377.993909,319.773263 359.159362,323.990021 C329.507954,331.030127 314.568595,323.210531 313.868426,323.576797 C308.767194,322.637653 304.096067,320.46823 299.234893,318.834119 C297.054366,329.784541 295.1239,340.781921 292.853352,351.713561 C292.293217,356.991552 289.972657,362.203803 291.202954,367.547534 C295.884084,402.849969 300.485195,438.161795 305.216337,473.454838 C293.13342,476.760626 280.840452,479.418405 268.417452,481.343651 C261.455771,482.029226 254.354056,482.611496 247.392376,481.606611 C243.871525,481.052516 240.240649,477.671596 241.891047,474.140414 C246.162079,464.852277 254.484088,456.446935 265.396723,454.380817 C274.798993,452.784272 284.101239,456.399978 291.793096,461.22718 C286.871908,437.269608 282.870942,413.152382 278.139799,389.157245 C276.919505,380.357463 274.358887,371.745509 273.578698,362.89877 C274.178843,345.909649 275.609188,328.939311 276.789473,311.978365 C251.353332,321.961469 221.346087,321.200762 196.820165,309.217281 C194.429588,320.79693 192.379093,332.423537 190.04853,344.012578 C189.088298,352.455485 185.227366,360.738738 187.017798,369.331908 C189.008279,381.268433 190.078537,393.308263 191.888974,405.26357 C193.619392,416.796262 194.669646,428.413477 196.520093,439.936778 C197.900426,451.084421 199.190737,462.250847 201.091196,473.33275 C189.018281,476.779409 176.685303,479.380839 164.252302,481.324868 C156.990548,481.982269 149.538749,482.865065 142.327008,481.399999 C138.986201,480.714424 136.175522,477.258373 137.765906,474.074674 C141.496807,465.2655 149.248679,457.555125 159.101058,454.822215 C168.933432,452.305309 179.1559,455.996146 187.297866,461.133265 C181.706516,430.761338 175.915117,400.436368 170.33377,370.064441 C169.733625,367.049788 168.933432,364.035134 169.153485,360.94535 C170.0437,346.970882 171.324009,333.005806 171.844135,319.012556 C163.182043,321.238328 154.319903,323.126008 145.287723,323.050876 C114.500289,323.4641 84.1029496,308.062133 67.7289961,283.550467 C65.4084358,280.695468 64.4882136,276.422361 60.4672428,275.201474 C44.9935067,268.890424 29.7467961,255.707636 12.9157615,233.775818 C1.88309771,214.65484 -2.22789488,191.833633 2.62327643,170.486883 C9.32489452,135.691586 38.9020359,105.948885 75.3608388,97.149103 C76.9012107,96.6795309 79.1417517,96.6795309 79.3017903,94.7167192 C85.2632297,72.7595248 101.697198,53.6385465 123.122371,43.2797848 C140.976682,34.5363512 162.101782,31.9443129 181.746525,36.1047222 Z" id="Path" fill="#F14642"></path>
            <path d="M254.319097,18.4634874 C274.51733,16.8249583 295.245255,22.7669807 311.086027,34.6792762 C323.498796,43.9171907 332.903317,56.6864181 337.770482,70.8681706 C338.809876,73.7120546 339.579428,76.6971911 341.198485,79.3244879 C346.835201,78.0626321 352.14211,75.6707561 357.918744,74.8609084 C375.928253,71.527349 395.246999,76.1698483 409.618626,86.8485385 C423.260679,96.9528018 432.255439,112.36816 433.954449,128.649866 C435.453576,139.592228 432.525282,150.496922 428.387692,160.648269 C435.323652,165.234268 442.489477,169.754348 447.846357,176.063627 C459.649481,189.32253 464.956389,207.572355 461.638322,224.635659 C459.349655,237.847477 451.953964,250.061111 441.460077,259.035355 C435.433588,242.216888 427.148414,226.217687 418.14366,210.661077 C416.664522,207.798359 413.706245,205.359399 410.098347,206.00916 C404.521596,206.103329 401.553325,212.676279 404.461631,216.885604 C413.696251,233.261479 422.631046,249.966943 428.267762,267.802427 C418.873235,271.908167 408.739139,274.328294 398.375176,274.573131 C397.255828,275.816153 396.13648,277.049759 395.017133,278.283364 C363.719755,303.938586 357.918744,308.528084 316.342965,305.281428 C304.48987,301.655947 293.995983,295.007662 285.181118,286.796182 C280.463866,289.366978 275.85655,292.154361 270.869455,294.254315 C251.580692,302.428127 228.614071,302.550546 209.275337,294.470902 C203.738563,292.248529 198.691503,289.12214 193.56449,286.193505 C184.649683,293.218463 174.665499,299.424157 163.272137,302.155039 C145.942232,306.741037 126.763405,304.791753 110.932627,296.702692 C97.0607085,289.83782 85.7872759,278.481118 79.4609613,264.977377 C78.5015202,262.566668 76.3327836,260.965806 73.7742741,260.259543 C48.8687829,252.038647 29.4201128,231.283944 23.0038506,207.271016 C19.0761387,191.865075 19.8956613,175.244363 26.1220341,160.469349 C32.5283021,144.809154 44.6912166,131.352498 60.002297,122.773762 C70.8659683,116.426815 83.4386441,113.592348 95.9213722,111.727815 C97.3605338,102.405149 99.3593694,92.960064 104.416423,84.7015003 C113.551102,68.8058839 130.371303,56.9689231 149.230317,53.5129449 C159.2145,51.4224077 169.698393,51.7143295 179.552652,54.247458 C182.820749,55.0196384 185.978909,56.2626605 189.336952,56.7429191 C192.255252,54.2286243 194.084187,50.8385639 196.512772,47.9287621 C210.224784,31.0255445 231.762237,19.9136799 254.319097,18.4634874 Z" id="Shape-path" fill="#FF8B87"></path>
            <path d="M70.9526717,170.195794 C66.5834055,168.705167 44.4748083,152.497913 35.6519534,142.700359 C22.5581696,128.160047 16.8516689,111.560175 13.8367264,100.163996 C9.72473836,85.4998193 11.5971914,69.824328 17.1081022,55.7207095 C23.1550443,40.2477594 32.8067601,26.2779612 43.6491237,13.4545637 C47.3060828,8.95535746 56.048593,11.6759706 56.5586681,17.2351977 C57.4227293,20.4580463 54.7577378,23.0192956 52.9360884,25.4033474 C43.0034404,37.600397 34.1298375,50.9219256 29.4684917,65.7974515 C26.0635863,76.6177347 25.579159,88.4371774 29.2514413,99.2620733 C31.9807451,107.946132 41.962437,124.027607 52.5834902,138.322089 C61.8538347,150.798701 76.0467491,157.347458 80.6113953,160.212172 C79.9029076,163.403044 80.6113953,164.961253 78.6183537,166.803499 C76.625312,168.645745 73.7486836,170.195794 70.9526717,170.195794 Z" id="Path-Copy" fill="#F14642"></path>
            <path d="M134.239386,172.125368 C133.04612,176.138055 132.171058,180.382957 132.847242,184.55355 C133.931125,189.207151 141.180216,190.869815 144.372202,187.172942 C147.027219,184.646436 145.943336,180.828811 146.61952,177.679967 C148.946389,166.022741 160.292359,156.669095 172.960866,155.870273 C187.180618,154.588443 201.032447,164.601581 203.647688,177.652101 C204.642077,181.005295 203.299652,185.36166 206.660685,187.785991 C210.379697,190.749063 216.803445,188.752008 217.55918,184.116984 C218.165757,173.351467 213.452357,162.465198 205.248653,154.904256 C196.935567,146.934615 184.863694,142.466786 172.931034,143.293474 C155.161315,143.674308 138.793684,156.148932 134.239386,172.125368 Z" id="Shape-path" fill="#000000"></path>
            <path d="M319.782847,143.795221 C302.039575,147.039642 287.494276,161.66278 285.810608,178.498446 C285.720945,181.352422 284.95383,184.736288 287.185437,187.088262 C290.134347,190.555795 297.048346,189.551791 298.562651,185.275476 C299.558904,181.873017 299.220178,178.238149 300.375832,174.854282 C303.533955,165.306944 312.739336,157.73043 323.359396,156.177941 C337.92462,153.519189 353.53591,163.252454 356.425045,176.834402 C357.550811,180.394899 356.345345,184.773474 359.39388,187.646042 C363.000317,190.816093 370.013941,188.882455 370.531992,184.029767 C371.597983,169.025479 361.824738,154.262896 347.59824,147.485866 C339.110162,143.246737 329.177516,142.447252 319.782847,143.795221 Z" id="Shape-path" fill="#000000"></path>
        </g>
    </g>
</svg>