<?xml version="1.0" encoding="UTF-8" ?>
<!DOCTYPE svg PUBLIC "-//W3C//DTD SVG 1.1//EN" "http://www.w3.org/Graphics/SVG/1.1/DTD/svg11.dtd">
<svg width="1600pt" height="812pt" viewBox="0 0 1600 812" version="1.1" xmlns="http://www.w3.org/2000/svg">
<g id="#ffffffff">
</g>
<g id="#000000ff">
<path fill="#000000" opacity="1.00" d=" M 83.65 153.11 C 117.43 153.48 151.22 153.17 185.00 153.27 C 199.24 153.17 213.48 153.47 227.71 153.11 C 228.57 154.29 229.44 155.48 230.46 156.54 C 276.82 202.89 323.17 249.26 369.49 295.64 C 370.22 296.34 370.99 297.01 371.89 297.51 C 386.58 284.01 399.96 269.16 413.94 254.93 C 424.09 243.13 435.55 232.54 446.42 221.42 C 461.46 206.12 477.12 191.44 491.72 175.72 C 495.14 171.49 499.37 168.01 502.76 163.76 C 505.72 160.00 509.58 157.07 512.41 153.19 C 552.04 153.40 591.69 153.14 631.32 153.38 C 631.75 169.75 631.39 186.12 631.51 202.49 C 601.00 202.44 570.48 202.51 539.97 202.46 C 537.86 202.53 535.71 202.24 533.65 202.73 C 527.70 207.76 523.10 214.13 517.49 219.49 C 468.93 268.12 420.39 316.76 371.84 365.39 C 362.00 356.54 352.94 346.80 343.56 337.45 C 299.70 293.33 255.50 249.54 211.58 205.48 C 210.19 204.31 209.18 202.14 207.05 202.47 C 181.14 202.43 155.23 202.56 129.32 202.40 C 129.56 283.60 129.11 364.80 129.24 446.00 C 129.24 521.00 129.23 596.01 129.25 671.01 C 128.94 671.33 128.32 671.96 128.01 672.28 C 118.67 672.37 109.32 672.41 99.98 672.26 C 94.59 671.23 89.08 671.63 83.70 672.52 C 83.59 499.38 83.70 326.24 83.65 153.11 Z" />
<path fill="#000000" opacity="1.00" d=" M 968.61 153.15 C 1007.92 153.18 1047.24 153.05 1086.55 153.22 C 1089.28 157.47 1093.16 160.76 1096.55 164.46 C 1117.78 185.89 1139.51 206.84 1160.38 228.63 C 1166.54 236.08 1173.80 242.54 1180.25 249.74 C 1189.13 259.53 1198.95 268.38 1208.22 277.79 C 1215.20 284.35 1221.34 291.85 1228.90 297.78 C 1241.87 284.14 1254.97 270.57 1269.02 258.03 C 1281.94 247.00 1293.31 234.32 1305.49 222.49 C 1313.94 213.57 1323.39 205.70 1332.45 197.41 C 1344.23 185.88 1355.56 173.88 1367.44 162.44 C 1370.59 159.34 1374.50 156.95 1376.89 153.14 C 1405.92 153.45 1434.96 153.18 1464.00 153.27 C 1480.26 153.16 1496.54 153.51 1512.79 153.08 C 1512.76 281.38 1512.82 409.70 1512.66 538.00 C 1512.49 582.46 1512.40 626.94 1512.58 671.40 C 1508.17 672.81 1503.53 672.24 1499.00 672.34 C 1489.47 672.35 1479.95 672.14 1470.43 672.39 C 1470.79 620.93 1470.50 569.46 1470.43 518.00 C 1470.42 453.02 1470.46 388.03 1470.41 323.05 C 1469.05 317.46 1469.66 311.70 1469.55 306.00 C 1469.59 271.50 1469.48 237.00 1469.61 202.49 C 1443.53 202.45 1417.44 202.49 1391.36 202.47 C 1337.29 256.93 1282.81 310.99 1228.69 365.40 C 1223.00 360.77 1218.20 355.15 1212.91 350.09 C 1163.72 300.86 1114.49 251.67 1065.34 202.40 C 1033.28 202.54 1001.22 202.48 969.16 202.44 L 968.69 201.76 C 968.46 185.56 968.65 169.35 968.61 153.15 Z" />
<path fill="#000000" opacity="1.00" d=" M 177.36 249.36 C 181.27 249.38 185.18 249.39 189.09 249.55 C 197.80 258.62 206.76 267.45 215.40 276.60 C 222.32 284.96 230.47 292.20 237.82 300.18 C 243.93 306.40 249.65 313.03 256.34 318.66 C 275.78 337.89 295.14 357.21 313.77 377.23 C 321.42 385.57 329.49 393.51 337.33 401.67 C 340.66 405.34 344.20 408.82 347.92 412.09 C 355.38 419.23 362.39 426.84 369.98 433.85 C 376.02 428.59 381.08 422.36 386.49 416.48 C 402.78 397.82 422.01 381.93 437.95 362.94 C 445.33 354.67 453.39 347.05 461.19 339.19 C 471.64 329.97 480.50 319.15 489.94 308.94 C 497.15 301.55 504.48 294.28 511.79 286.99 C 511.53 291.77 511.52 296.57 511.59 301.36 C 511.84 311.19 511.77 321.03 511.51 330.86 C 511.47 341.19 511.91 351.62 511.32 361.89 C 503.63 369.68 496.00 377.53 488.06 385.06 C 480.07 392.06 472.37 399.37 464.62 406.63 C 454.97 417.30 444.70 427.41 433.94 436.96 C 420.70 448.34 409.00 461.34 396.51 473.51 C 388.49 482.06 378.42 488.52 371.03 497.66 C 356.96 483.17 342.29 469.28 328.09 454.91 C 310.85 437.82 293.65 420.68 276.45 403.54 C 268.55 397.16 261.84 389.49 254.57 382.44 C 245.98 374.35 237.79 365.86 229.41 357.56 C 227.74 355.86 226.34 353.92 224.78 352.12 C 221.80 354.07 224.79 357.28 224.39 360.00 C 224.37 394.34 224.38 428.68 224.38 463.02 C 224.37 465.37 223.39 467.60 223.51 469.97 C 223.61 537.43 223.42 604.88 223.61 672.33 C 210.40 672.36 197.19 672.31 183.99 672.36 C 181.77 672.34 179.53 672.38 177.37 671.81 C 177.72 624.54 177.42 577.27 177.52 530.00 C 177.52 447.34 177.52 364.67 177.52 282.00 C 177.44 271.12 177.71 260.24 177.36 249.36 Z" />
<path fill="#000000" opacity="1.00" d=" M 1410.90 249.61 C 1414.62 250.26 1419.33 248.25 1422.33 250.93 C 1422.60 254.31 1421.94 257.64 1421.71 260.99 C 1421.60 398.11 1421.86 535.23 1421.58 672.35 C 1406.15 672.33 1390.72 672.33 1375.29 672.35 C 1375.61 615.24 1375.32 558.12 1375.30 501.00 C 1375.41 451.32 1375.08 401.62 1375.47 351.94 C 1372.41 353.65 1370.49 356.64 1367.99 358.98 C 1342.07 384.74 1315.88 410.21 1290.17 436.17 C 1270.17 457.18 1249.28 477.33 1228.90 497.97 C 1213.29 484.33 1199.46 468.83 1184.44 454.55 C 1177.42 448.25 1170.06 442.29 1163.57 435.42 C 1154.75 426.91 1146.55 417.78 1137.57 409.44 C 1132.97 404.66 1127.55 400.82 1122.87 396.14 C 1110.99 384.56 1099.49 372.59 1087.80 360.84 C 1087.39 351.12 1087.45 341.31 1087.80 331.57 C 1088.85 321.66 1088.83 311.60 1087.86 301.68 C 1087.33 296.74 1087.61 291.75 1087.64 286.79 C 1096.34 293.97 1102.83 303.30 1110.90 311.11 C 1117.66 319.01 1125.73 325.59 1132.82 333.18 C 1147.03 346.67 1158.97 362.34 1173.44 375.56 C 1180.41 382.58 1187.51 389.49 1194.40 396.61 C 1205.62 409.61 1217.50 422.04 1230.00 433.83 C 1238.73 426.32 1246.25 417.53 1254.49 409.49 C 1260.05 404.35 1264.57 398.25 1270.05 393.02 C 1283.86 378.19 1298.33 363.99 1312.64 349.63 C 1318.20 344.20 1323.44 338.42 1329.35 333.35 C 1335.19 327.85 1340.49 321.82 1346.16 316.16 C 1353.19 308.53 1360.92 301.55 1367.60 293.60 C 1381.71 278.63 1396.56 264.37 1410.90 249.61 Z" />
</g>
<g id="#22a324ff">
<path fill="#22a324" opacity="1.00" d=" M 512.57 241.12 C 513.42 239.64 515.54 240.46 516.94 240.18 C 525.31 240.29 533.73 239.62 542.00 241.24 C 579.36 241.36 616.72 241.24 654.09 241.30 C 655.36 241.38 656.88 241.15 657.83 242.27 C 662.12 246.28 666.17 250.57 670.68 254.36 C 677.16 259.55 682.71 265.75 688.77 271.40 C 664.52 270.83 640.25 271.41 616.00 271.26 C 591.67 271.19 567.33 271.38 543.00 271.19 C 532.87 269.59 522.63 270.82 512.47 271.31 C 512.65 261.25 512.49 251.18 512.57 241.12 Z" />
<path fill="#22a324" opacity="1.00" d=" M 937.97 247.98 C 941.15 245.58 943.37 240.71 947.92 241.20 C 994.54 241.25 1041.16 241.13 1087.78 241.26 C 1087.44 251.04 1087.44 260.84 1087.78 270.63 C 1030.02 270.63 972.25 270.70 914.49 270.33 C 921.84 262.39 929.72 254.97 937.97 247.98 Z" />
<path fill="#22a324" opacity="1.00" d=" M 511.59 301.36 C 521.05 301.70 530.55 301.01 540.00 301.81 C 598.03 301.87 656.06 301.83 714.09 301.83 C 716.46 302.13 719.33 301.88 721.02 303.93 C 727.13 309.83 732.79 316.22 739.36 321.65 C 742.89 324.82 746.47 327.96 749.72 331.45 C 698.15 331.95 646.57 331.38 595.00 331.77 C 569.66 331.81 544.33 331.78 519.00 331.60 C 516.66 331.63 514.31 331.74 512.01 331.25 L 511.51 330.86 C 511.77 321.03 511.84 311.19 511.59 301.36 Z" />
<path fill="#22a324" opacity="1.00" d=" M 879.84 304.84 C 881.35 303.58 882.79 301.66 884.93 301.66 C 952.57 301.73 1020.22 301.69 1087.86 301.68 C 1088.83 311.60 1088.85 321.66 1087.80 331.57 C 1012.54 331.78 937.27 331.55 862.01 331.60 C 858.69 331.60 855.37 331.61 852.08 331.33 C 860.31 321.49 870.72 313.81 879.84 304.84 Z" />
<path fill="#22a324" opacity="1.00" d=" M 512.58 363.60 C 513.95 363.00 515.31 362.20 516.88 362.33 C 524.92 362.49 533.05 361.71 540.98 363.37 C 620.35 363.51 699.72 363.45 779.09 363.55 C 780.51 363.74 782.37 363.16 783.46 364.40 C 788.48 369.43 793.66 374.29 798.56 379.45 C 799.44 380.56 801.07 381.36 802.37 380.40 C 808.35 375.07 813.46 368.79 819.63 363.67 C 896.74 363.36 973.88 363.62 1051.00 363.53 C 1063.10 363.58 1075.22 363.43 1087.33 363.62 C 1087.88 373.58 1087.28 383.56 1087.70 393.52 C 904.80 393.46 721.89 393.48 538.99 393.52 C 529.92 392.93 520.81 393.12 511.74 393.36 C 511.99 388.24 511.85 383.12 511.86 378.00 C 512.42 373.21 512.68 368.41 512.58 363.60 Z" />
<path fill="#22a324" opacity="1.00" d=" M 513.26 423.42 C 522.50 423.39 531.86 422.58 540.99 424.36 C 722.91 424.41 904.83 424.33 1086.76 424.33 C 1086.63 434.08 1086.69 443.83 1086.70 453.58 C 1040.54 453.67 994.39 453.72 948.24 453.70 C 948.23 448.54 948.27 443.38 948.29 438.23 C 941.71 442.35 937.40 449.20 931.05 453.54 C 915.71 454.11 900.35 453.65 885.00 453.80 C 840.67 453.83 796.33 453.88 752.00 453.82 C 733.37 455.30 714.67 454.47 696.00 454.68 C 687.62 454.62 679.24 454.77 670.87 454.69 C 664.36 449.51 659.46 442.44 652.50 437.75 C 652.13 443.40 652.64 449.06 652.52 454.71 C 615.02 454.11 577.49 454.70 539.99 454.41 C 531.17 452.82 522.16 454.02 513.26 453.55 C 513.32 443.51 513.29 433.47 513.26 423.42 Z" />
<path fill="#22a324" opacity="1.00" d=" M 513.15 485.62 C 559.58 485.59 606.02 485.66 652.45 485.60 C 652.55 495.28 652.38 504.96 652.52 514.65 C 605.89 514.81 559.26 514.78 512.63 514.55 C 513.02 504.92 512.14 495.21 513.15 485.62 Z" />
<path fill="#22a324" opacity="1.00" d=" M 700.53 485.55 C 766.63 485.65 832.73 485.69 898.83 485.53 C 891.68 493.14 884.17 500.40 876.83 507.83 C 873.64 510.57 870.79 515.12 866.08 514.72 C 821.36 514.63 776.61 514.95 731.90 514.56 C 721.25 505.12 711.07 495.12 700.53 485.55 Z" />
<path fill="#22a324" opacity="1.00" d=" M 947.75 486.65 C 994.60 486.84 1041.45 486.68 1088.30 486.73 C 1088.14 496.62 1088.20 506.51 1088.27 516.39 C 1041.36 516.57 994.45 516.32 947.54 516.52 C 947.72 506.56 947.49 496.60 947.75 486.65 Z" />
<path fill="#22a324" opacity="1.00" d=" M 513.27 546.60 C 559.71 546.72 606.15 546.71 652.59 546.64 C 652.66 556.50 652.53 566.36 652.68 576.22 C 616.45 576.23 580.22 576.24 543.99 576.21 C 533.62 575.29 523.20 575.90 512.81 575.65 C 512.87 565.98 512.08 556.21 513.27 546.60 Z" />
<path fill="#22a324" opacity="1.00" d=" M 765.29 546.66 C 788.72 546.78 812.16 546.59 835.59 546.74 C 828.44 555.51 819.40 562.45 811.49 570.49 C 807.68 574.18 803.83 577.84 800.20 581.70 C 794.62 575.33 788.37 569.59 782.45 563.55 C 776.67 557.97 771.40 551.87 765.29 546.66 Z" />
<path fill="#22a324" opacity="1.00" d=" M 947.74 547.59 C 994.37 547.80 1041.00 547.72 1087.63 547.63 C 1087.55 557.59 1087.49 567.55 1087.67 577.51 C 1040.97 577.41 994.26 577.37 947.56 577.53 C 947.72 567.55 947.48 557.57 947.74 547.59 Z" />
<path fill="#22a324" opacity="1.00" d=" M 512.64 608.19 C 522.69 607.03 532.92 607.55 542.99 608.29 C 579.78 608.37 616.57 608.16 653.36 608.39 C 653.19 618.03 653.18 627.68 653.35 637.32 C 606.44 637.39 559.53 637.33 512.62 637.33 C 512.75 627.62 512.74 617.90 512.64 608.19 Z" />
<path fill="#22a324" opacity="1.00" d=" M 948.27 609.35 C 994.74 609.47 1041.22 609.41 1087.70 609.38 C 1087.51 618.82 1087.47 628.26 1087.72 637.70 C 1041.24 637.73 994.75 637.57 948.26 637.78 C 948.24 628.30 948.24 618.82 948.27 609.35 Z" />
<path fill="#22a324" opacity="1.00" d=" M 512.63 668.72 C 521.44 668.80 530.31 667.94 539.05 669.33 C 576.91 669.46 614.78 669.37 652.65 669.37 C 652.58 679.02 652.63 688.67 652.61 698.32 C 605.94 698.42 559.27 698.36 512.60 698.33 C 512.78 688.46 512.71 678.58 512.63 668.72 Z" />
<path fill="#22a324" opacity="1.00" d=" M 947.69 670.66 C 994.57 670.39 1041.46 670.60 1088.35 670.55 C 1088.12 680.20 1088.18 689.85 1088.30 699.49 C 1041.39 699.71 994.47 699.46 947.56 699.62 C 947.69 689.96 947.55 680.31 947.69 670.66 Z" />
<path fill="#22a324" opacity="1.00" d=" M 513.30 730.34 C 559.75 730.42 606.20 730.40 652.65 730.40 C 652.65 740.09 652.47 749.79 652.77 759.48 C 614.08 759.31 575.40 759.54 536.71 759.35 C 528.92 758.50 521.09 758.84 513.27 758.81 C 513.30 749.32 513.28 739.83 513.30 730.34 Z" />
<path fill="#22a324" opacity="1.00" d=" M 948.28 731.40 C 994.78 731.60 1041.28 731.39 1087.78 731.50 C 1087.41 741.23 1087.52 750.98 1087.70 760.72 C 1041.21 760.84 994.71 760.68 948.22 760.80 C 948.29 751.00 948.20 741.20 948.28 731.40 Z" />
</g>
</svg>
