<?xml version="1.0" encoding="UTF-8"?>
<svg width="586px" height="514px" viewBox="0 0 586 514" version="1.1" xmlns="http://www.w3.org/2000/svg" xmlns:xlink="http://www.w3.org/1999/xlink">
    <!-- Generator: Sketch 57.1 (83088) - https://sketch.com -->
    <title>logo</title>
    <desc>Created with Sketch.</desc>
    <g id="Page-1" stroke="none" stroke-width="1" fill="none" fill-rule="evenodd">
        <g id="logo" fill-rule="nonzero">
            <path d="M284.48,39.0399996 C306.49,10.8899996 344.24,-3.99000036 379.52,2.18999964 C402.84,5.73999964 424.65,18.0899996 439.96,35.9899996 C446.66,43.6399996 451.83,52.4699996 456.17,61.6299996 C487.73,54.7099996 522.32,68.7199996 540.87,95.0099996 C555.28,114.6 560.18,140.56 554.41,164.12 C567.96,175.69 578.44,191.14 582.61,208.58 C587.98,228.46 585.07,250.25 575.29,268.3 C569.31,279.81 560.23,289.37 550,297.2 C552.12,310.65 553.21,324.66 549.57,337.97 C546.14,353.33 536.97,366.99 525.13,377.19 C509.33,390.62 489.71,398.48 470.05,404.35 C466.66,405.37 462.32,404.86 460.48,401.46 C457.4,397.43 460.07,391.08 464.84,389.92 C481.31,385.26 497.68,379.03 511.48,368.69 C522.64,360.33 531.62,348.5 534.72,334.74 C537.2,325.12 537.08,315.03 535.64,305.27 C528.67,308.25 521.38,310.54 513.84,311.49 C511.9,311.55 510.9,313.41 509.73,314.68 C497.78,329.87 480.68,341.09 461.85,345.58 C432.205752,353.076299 417.27,344.75 416.57,345.14 C411.47,344.14 406.8,341.83 401.94,340.09 C399.76,351.75 397.83,363.46 395.56,375.1 C395,380.72 392.68,386.27 393.91,391.96 C398.59,429.55 403.19,467.15 407.92,504.73 C395.84,508.25 383.55,511.08 371.13,513.13 C364.17,513.86 357.07,514.48 350.11,513.41 C346.59,512.82 342.96,509.22 344.61,505.46 C348.88,495.57 357.2,486.62 368.11,484.42 C377.51,482.72 386.81,486.57 394.5,491.71 C389.58,466.2 385.58,440.52 380.85,414.97 C379.63,405.6 377.07,396.43 376.29,387.01 C376.89,368.92 378.32,350.85 379.5,332.79 C354.07,343.42 324.07,342.61 299.55,329.85 C297.16,342.18 295.11,354.56 292.78,366.9 C291.82,375.89 287.96,384.71 289.75,393.86 C291.74,406.57 292.81,419.39 294.62,432.12 C296.35,444.4 297.4,456.77 299.25,469.04 C300.63,480.91 301.92,492.8 303.82,504.6 C291.75,508.27 279.42,511.04 266.99,513.11 C259.73,513.81 252.28,514.75 245.07,513.19 C241.73,512.46 238.92,508.78 240.51,505.39 C244.24,496.01 251.99,487.8 261.84,484.89 C271.67,482.21 281.89,486.14 290.03,491.61 C284.44,459.27 278.65,426.98 273.07,394.64 C272.47,391.43 271.67,388.22 271.89,384.93 C272.78,370.05 274.06,355.18 274.58,340.28 C265.92,342.65 257.06,344.66 248.03,344.58 C217.25,345.02 186.86,328.62 170.49,302.52 C168.17,299.48 167.25,294.93 163.23,293.63 C147.76,286.91 134.48,275.84 124.06,262.67 C104.72,269.66 82.9399995,272.66 63.0299995,266.21 C47.5999995,261.45 34.4499995,251.01 24.6599995,238.35 C13.9199995,224.46 6.45999952,208.34 0.669999518,191.85 C-1.44000048,186.19 5.67999952,180.26 10.9699995,182.96 C14.3399995,184.04 15.2299995,187.76 16.4099995,190.66 C22.1199995,206.02 29.4099995,221.11 40.3499995,233.48 C48.2999995,242.49 58.7099995,249.57 70.4399995,252.54 C85.3899995,256.67 101.12,253.82 115.69,249.52 C104.66,229.16 100.55,204.86 105.4,182.13 C112.1,145.08 141.67,113.41 178.12,104.04 C179.66,103.54 181.9,103.54 182.06,101.45 C188.02,78.0699996 204.45,57.7099996 225.87,46.6799996 C243.72,37.3699996 264.84,34.6099996 284.48,39.0399996 Z" id="Path" fill="#F14642"></path>
            <path d="M357.08,20.91 C377.29,19.17 398.03,25.48 413.88,38.13 C426.3,47.94 435.71,61.5 440.58,76.56 C441.62,79.58 442.39,82.75 444.01,85.54 C449.65,84.2 454.96,81.66 460.74,80.8 C478.76,77.26 498.09,82.19 512.47,93.53 C526.12,104.26 535.12,120.63 536.82,137.92 C538.32,149.54 535.39,161.12 531.25,171.9 C538.19,176.77 545.36,181.57 550.72,188.27 C562.53,202.35 567.84,221.73 564.52,239.85 C562.23,253.88 554.83,266.85 544.33,276.38 C538.3,258.52 530.01,241.53 521,225.01 C519.52,221.97 516.56,219.38 512.95,220.07 C507.37,220.17 504.4,227.15 507.31,231.62 C516.55,249.01 525.49,266.75 531.13,285.69 C521.73,290.05 511.59,292.62 501.22,292.88 C500.1,294.2 498.98,295.51 497.86,296.82 C466.54439,324.063998 460.74,328.937715 419.14,325.49 C407.28,321.64 396.78,314.58 387.96,305.86 C383.24,308.59 378.63,311.55 373.64,313.78 C354.34,322.46 331.36,322.59 312.01,314.01 C306.47,311.65 301.42,308.33 296.29,305.22 C287.37,312.68 277.38,319.27 265.98,322.17 C248.64,327.04 229.45,324.97 213.61,316.38 C199.73,309.09 188.45,297.03 182.12,282.69 C181.16,280.13 178.99,278.43 176.43,277.68 C151.51,268.95 132.05,246.91 125.63,221.41 C121.7,205.05 122.52,187.4 128.75,171.71 C135.16,155.08 147.33,140.79 162.65,131.68 C173.52,124.94 186.1,121.93 198.59,119.95 C200.03,110.05 202.03,100.02 207.09,91.25 C216.23,74.37 233.06,61.8 251.93,58.13 C261.92,55.91 272.41,56.22 282.27,58.91 C285.54,59.73 288.7,61.05 292.06,61.56 C294.98,58.89 296.81,55.29 299.24,52.2 C312.96,34.25 334.51,22.45 357.08,20.91 Z" id="Shape-path" fill="#FF8B87"></path>
            <path d="M200.13,184.06 C198.93,188.38 198.05,192.95 198.73,197.44 C199.82,202.45 207.11,204.24 210.32,200.26 C212.99,197.54 211.9,193.43 212.58,190.04 C214.92,177.49 226.33,167.42 239.07,166.56 C253.37,165.18 267.3,175.96 269.93,190.01 C270.93,193.62 269.58,198.31 272.96,200.92 C276.7,204.11 283.16,201.96 283.92,196.97 C284.53,185.38 279.79,173.66 271.54,165.52 C263.18,156.94 251.04,152.13 239.04,153.02 C221.17,153.43 204.71,166.86 200.13,184.06 Z" id="Shape-path" fill="#000000"></path>
            <path d="M363.47,153.59 C345.66,157.08 331.06,172.81 329.37,190.92 C329.28,193.99 328.51,197.63 330.75,200.16 C333.71,203.89 340.65,202.81 342.17,198.21 C343.17,194.55 342.83,190.64 343.99,187 C347.16,176.73 356.4,168.58 367.06,166.91 C381.68,164.05 397.35,174.52 400.25,189.13 C401.38,192.96 400.17,197.67 403.23,200.76 C406.85,204.17 413.89,202.09 414.41,196.87 C415.48,180.73 405.67,164.85 391.39,157.56 C382.87,153 372.9,152.14 363.47,153.59 Z" id="Shape-path" fill="#000000"></path>
        </g>
    </g>
</svg>